<svg xmlns="http://www.w3.org/2000/svg" version="1.1" xmlns:xlink="http://www.w3.org/1999/xlink" xmlns:svgjs="http://svgjs.dev/svgjs" width="1440" height="560" preserveAspectRatio="none" viewBox="0 0 1440 560"><g mask="url(&quot;#SvgjsMask1000&quot;)" fill="none"><rect width="1440" height="560" x="0" y="0" fill="#0e2a47"></rect><path d="M0,616.127C127.896,641.584,269.089,659.501,382.739,595.554C498.051,530.672,571.336,404.141,604.429,276.034C635.001,157.688,593.081,36.747,557.284,-80.125C526.163,-181.728,465.336,-264.772,410.841,-355.996C343.458,-468.794,316.568,-619.668,199.425,-679.178C79.729,-739.985,-74.983,-724.114,-194.883,-663.71C-308.731,-606.355,-354.226,-473.713,-422.326,-365.948C-480.099,-274.525,-560.013,-189.069,-563.135,-80.967C-566.156,23.644,-484.995,106.49,-438.679,200.338C-394.001,290.868,-369.198,391.023,-295.927,460.471C-213.361,538.728,-111.571,593.92,0,616.127" fill="#0b2239"></path><path d="M1440 1041.646C1531.542 1039.321 1626.103 1017.454 1695.869 958.14 1762.217 901.732 1779.187 810.297 1808.548 728.31 1835.439 653.218 1857.275 579.315 1860.076 499.602 1863.378 405.639 1885.646 298.197 1826.225 225.334 1766.769 152.42700000000002 1658.156 142.48200000000003 1564.248 136.851 1483.222 131.99200000000002 1410.283 170.781 1333.05 195.76100000000002 1258.202 219.97000000000003 1180.856 233.606 1118.1689999999999 281.132 1045.034 336.579 964.236 399.01099999999997 946.252 489.01 928.104 579.833 984.754 666.097 1024.532 749.738 1063.725 832.1510000000001 1100.971 918.887 1175.641 971.35 1251.791 1024.853 1346.963 1044.009 1440 1041.646" fill="#113255"></path></g><defs><mask id="SvgjsMask1000"><rect width="1440" height="560" fill="#ffffff"></rect></mask></defs></svg>